<?xml version="1.0" encoding="UTF-8" standalone="no"?>
<!-- Created with Inkscape (http://www.inkscape.org/) -->

<svg
   width="210mm"
   height="174mm"
   viewBox="0 0 210 174"
   version="1.1"
   id="svg5"
   inkscape:version="1.1 (c68e22c387, 2021-05-23)"
   sodipodi:docname="logo.svg"
   xmlns:inkscape="http://www.inkscape.org/namespaces/inkscape"
   xmlns:sodipodi="http://sodipodi.sourceforge.net/DTD/sodipodi-0.dtd"
   xmlns:xlink="http://www.w3.org/1999/xlink"
   xmlns="http://www.w3.org/2000/svg"
   xmlns:svg="http://www.w3.org/2000/svg">
  <sodipodi:namedview
     id="namedview7"
     pagecolor="#ffffff"
     bordercolor="#999999"
     borderopacity="1"
     inkscape:pageshadow="0"
     inkscape:pageopacity="0"
     inkscape:pagecheckerboard="0"
     inkscape:document-units="mm"
     showgrid="false"
     inkscape:zoom="0.69397447"
     inkscape:cx="-214.7053"
     inkscape:cy="652.04128"
     inkscape:window-width="2560"
     inkscape:window-height="1377"
     inkscape:window-x="-8"
     inkscape:window-y="-8"
     inkscape:window-maximized="1"
     inkscape:current-layer="layer1"
     height="296mm" />
  <defs
     id="defs2">
    <linearGradient
       id="SVGID_00000070823901569909400290000015297259876877628577_"
       gradientUnits="userSpaceOnUse"
       x1="271.2951"
       y1="272.44769"
       x2="405.02319"
       y2="406.17581">
      <stop
         offset="0"
         style="stop-color:#FF39FF"
         id="stop36641" />
      <stop
         offset="1"
         style="stop-color:#0000D5"
         id="stop36643" />
    </linearGradient>
    <linearGradient
       id="SVGID_00000083809106021633976380000011993870512388205743_"
       gradientUnits="userSpaceOnUse"
       x1="294.8493"
       y1="288.33759"
       x2="308.8559"
       y2="302.34421"
       xlink:href="#SVGID_00000142158199556553721390000014237219624784350391_">
      <stop
         offset="0"
         style="stop-color:#FF3900"
         id="stop1146" />
      <stop
         offset="1"
         style="stop-color:#FEC200"
         id="stop1148" />
    </linearGradient>
    <linearGradient
       id="SVGID_00000156580367024248329040000001335410335775693751_"
       gradientUnits="userSpaceOnUse"
       x1="409.97311"
       y1="337.80661"
       x2="418.7356"
       y2="346.56909">
      <stop
         offset="0"
         style="stop-color:#FF3900"
         id="stop1153" />
      <stop
         offset="1"
         style="stop-color:#FEC200"
         id="stop1155" />
    </linearGradient>
    <linearGradient
       id="SVGID_00000104694926426537607950000012621988316948384442_"
       gradientUnits="userSpaceOnUse"
       x1="327.2879"
       y1="278.509"
       x2="336.05042"
       y2="287.27151">
      <stop
         offset="0"
         style="stop-color:#FF3900"
         id="stop1160" />
      <stop
         offset="1"
         style="stop-color:#FEC200"
         id="stop1162" />
    </linearGradient>
    <linearGradient
       id="SVGID_00000069364223093094642140000003642719272736323485_"
       gradientUnits="userSpaceOnUse"
       x1="294.53391"
       y1="286.58469"
       x2="416.10172"
       y2="408.1525"
       gradientTransform="matrix(1.3541086,0,0,1.3541086,-384.55987,-264.74269)"
       spreadMethod="pad">
      <stop
         offset="0"
         style="stop-color:#FF3900"
         id="stop1063" />
      <stop
         offset="1"
         style="stop-color:#FEC200"
         id="stop1065" />
    </linearGradient>
    <linearGradient
       inkscape:collect="always"
       xlink:href="#SVGID_00000144329268582528851630000007825752397578055601_"
       id="linearGradient36748"
       x1="295.90701"
       y1="298.543"
       x2="314.202"
       y2="298.543"
       gradientUnits="userSpaceOnUse" />
  </defs>
  <g
     inkscape:label="Taso 1"
     inkscape:groupmode="layer"
     id="layer1">
    <path
       style="fill:#5f08d8;fill-opacity:1;stroke-width:1.48967"
       d="m 201.56986,129.62422 -24.65106,-17.1029 c -2.41774,-1.67736 -5.7248,0.0536 -5.7248,2.99572 v 10.43514 H 54.531953 L 37.449904,67.384311 C 36.620158,64.539049 34.013235,62.583106 31.050281,62.583106 H 5.1222944 c -3.6824655,0 16.8201086,10.534975 3.3984674,12.959158 -3.623834,0.654522 0,0 0,0 l 17.5286952,0.37637 17.08205,58.567876 c 0.828257,2.84527 3.436669,4.8012 6.399623,4.8012 H 171.194 v 10.43514 c 0,2.94359 3.30706,4.67311 5.7248,2.99574 l 24.65106,-17.10142 c 2.09001,-1.45094 2.09001,-4.542 0,-5.99295 z"
       id="path1068"
       sodipodi:nodetypes="ccscccssscccscsccc" />
    <g
       id="g1084"
       transform="matrix(1.4827886,0,0,1.4827886,-430.66473,-406.81269)"
       style="fill:#5f08d8;fill-opacity:1">
      <linearGradient
         id="SVGID_00000142158199556553721390000014237219624784350391_"
         gradientUnits="userSpaceOnUse"
         x1="290.05511"
         y1="323.37601"
         x2="399.99319"
         y2="433.31409">
        <stop
           offset="0"
           style="stop-color:#FF39FF"
           id="stop1070" />
        <stop
           offset="1"
           style="stop-color:#0000D5"
           id="stop1072" />
      </linearGradient>
      <circle
         style="fill:#5f08d8;fill-opacity:1"
         cx="347.92599"
         cy="381.24701"
         r="8.1730003"
         id="circle1075" />
      <linearGradient
         id="SVGID_00000162345201456458301220000000813815074455248523_"
         gradientUnits="userSpaceOnUse"
         x1="307.93271"
         y1="305.49841"
         x2="417.8707"
         y2="415.4364">
        <stop
           offset="0"
           style="stop-color:#FF39FF"
           id="stop1077" />
        <stop
           offset="1"
           style="stop-color:#0000D5"
           id="stop1079" />
      </linearGradient>
      <circle
         style="fill:#5f08d8;fill-opacity:1"
         cx="383.68201"
         cy="381.24701"
         r="8.1730003"
         id="circle1082" />
    </g>
    <g
       id="g1142"
       transform="matrix(1.4827886,0,0,1.4827886,-430.66473,-402.61843)"
       style="fill:#e078ff;fill-opacity:1">
      <linearGradient
         id="SVGID_00000060711232228609025010000002295858538454628287_"
         gradientUnits="userSpaceOnUse"
         x1="280.98669"
         y1="262.75629"
         x2="414.7146"
         y2="396.4841">
        <stop
           offset="0"
           style="stop-color:#FF39FF"
           id="stop1086" />
        <stop
           offset="1"
           style="stop-color:#0000D5"
           id="stop1088" />
      </linearGradient>
      <polygon
         style="fill:#e078ff;fill-opacity:1"
         points="351.471,349.588 362.82,349.588 362.82,328.242 346.452,328.242 "
         id="polygon1091" />
      <linearGradient
         id="SVGID_00000144329268582528851630000007825752397578055601_"
         gradientUnits="userSpaceOnUse"
         x1="290.8996"
         y1="252.8429"
         x2="424.6279"
         y2="386.57111">
        <stop
           offset="0"
           style="stop-color:#FF39FF"
           id="stop1093" />
        <stop
           offset="1"
           style="stop-color:#0000D5"
           id="stop1095" />
      </linearGradient>
      <polygon
         style="fill:#e078ff;fill-opacity:1"
         points="385.156,328.242 368.788,328.242 368.788,349.588 380.137,349.588 "
         id="polygon1098" />
      <linearGradient
         id="SVGID_00000127045731816423359010000006577715952545426306_"
         gradientUnits="userSpaceOnUse"
         x1="293.35281"
         y1="250.3904"
         x2="427.0806"
         y2="384.1181">
        <stop
           offset="0"
           style="stop-color:#FF39FF"
           id="stop1100" />
        <stop
           offset="1"
           style="stop-color:#0000D5"
           id="stop1102" />
      </linearGradient>
      <polygon
         style="fill:#e078ff;fill-opacity:1"
         points="345.049,322.275 362.82,322.275 362.82,299.67 339.734,299.67 "
         id="polygon1105" />
      <linearGradient
         id="SVGID_00000137832359593930513750000003489772147993159306_"
         gradientUnits="userSpaceOnUse"
         x1="316.59479"
         y1="227.1489"
         x2="450.3223"
         y2="360.8765">
        <stop
           offset="0"
           style="stop-color:#FF39FF"
           id="stop1107" />
        <stop
           offset="1"
           style="stop-color:#0000D5"
           id="stop1109" />
      </linearGradient>
      <path
         style="fill:#e078ff;fill-opacity:1"
         d="m 392.688,322.275 h 12.958 l 4.737,-17.485 c 0.699,-2.58 -1.244,-5.12 -3.917,-5.12 h -8.463 z"
         id="path1112" />
      <linearGradient
         id="SVGID_00000183929907156457875710000012448799146582577044_"
         gradientUnits="userSpaceOnUse"
         x1="306.5506"
         y1="237.19231"
         x2="440.27859"
         y2="370.9202">
        <stop
           offset="0"
           style="stop-color:#FF39FF"
           id="stop1114" />
        <stop
           offset="1"
           style="stop-color:#0000D5"
           id="stop1116" />
      </linearGradient>
      <polygon
         style="fill:#e078ff;fill-opacity:1"
         points="368.788,322.275 386.559,322.275 391.873,299.67 368.788,299.67 "
         id="polygon1119" />
      <linearGradient
         id="SVGID_00000143582854324997142130000004348002791517173643_"
         gradientUnits="userSpaceOnUse"
         x1="299.98792"
         y1="243.75481"
         x2="433.71619"
         y2="377.48309">
        <stop
           offset="0"
           style="stop-color:#FF39FF"
           id="stop1121" />
        <stop
           offset="1"
           style="stop-color:#0000D5"
           id="stop1123" />
      </linearGradient>
      <path
         style="fill:#e078ff;fill-opacity:1"
         d="m 391.285,328.242 -5.019,21.346 h 8.875 c 1.833,0 3.438,-1.228 3.917,-2.997 l 4.971,-18.349 z"
         id="path1126" />
      <linearGradient
         id="SVGID_00000070823901569909400290000015297259876877628577_-3"
         gradientUnits="userSpaceOnUse"
         x1="271.2951"
         y1="272.44769"
         x2="405.02319"
         y2="406.17581">
        <stop
           offset="0"
           style="stop-color:#FF39FF"
           id="stop1128" />
        <stop
           offset="1"
           style="stop-color:#0000D5"
           id="stop1130" />
      </linearGradient>
      <path
         style="fill:#e078ff;fill-opacity:1"
         d="m 340.322,328.242 h -12.51 l 5.164,18.385 c 0.492,1.751 2.089,2.961 3.907,2.961 h 8.457 z"
         id="path1133" />
      <linearGradient
         id="SVGID_00000068666041115409154810000001184763231758423426_"
         gradientUnits="userSpaceOnUse"
         x1="281.32059"
         y1="262.42249"
         x2="415.04831"
         y2="396.1503">
        <stop
           offset="0"
           style="stop-color:#FF39FF"
           id="stop1135" />
        <stop
           offset="1"
           style="stop-color:#0000D5"
           id="stop1137" />
      </linearGradient>
      <path
         style="fill:#e078ff;fill-opacity:1"
         d="m 326.136,322.275 h 12.783 l -5.315,-22.605 h -8.463 c -2.689,0 -4.634,2.567 -3.907,5.156 z"
         id="path1140" />
    </g>
    <polygon
       style="mix-blend-mode:hue;fill:url(#linearGradient36748);fill-opacity:1;fill-rule:nonzero"
       points="314.202,298.543 306.777,300.266 305.055,307.69 303.332,300.266 295.907,298.543 303.332,296.82 305.055,289.396 306.777,296.82 "
       id="polygon1151"
       transform="matrix(2.5832237,0,0,2.5832237,-755.45236,-733.66166)" />
    <g
       aria-label="Putiikkipalvelu"
       id="text8594"
       style="font-size:33.3643px;line-height:1.25;font-family:'Agency FB';-inkscape-font-specification:'Agency FB, Normal';stroke-width:0.83411">
      <path
         d="m 51.010184,16.585243 q 0,0.798267 -0.521317,1.319584 -0.505026,0.505026 -1.303293,0.505026 H 43.174135 V 28.526665 H 40.909663 V 3.0309962 h 8.275911 q 0.798267,0 1.303293,0.505026 0.521317,0.505026 0.521317,1.303293 z M 48.745712,16.389749 V 5.0348091 H 43.174135 V 16.389749 Z"
         id="path930" />
      <path
         d="m 63.407758,28.526665 h -2.134142 v -0.439862 q -1.303293,0.179203 -2.590295,0.342115 -1.563951,0.195494 -2.590295,0.195494 -1.759445,0 -1.759445,-1.759446 V 12.675364 h 2.134142 v 13.912652 l 4.805893,-0.130329 V 12.675364 h 2.134142 z"
         id="path932" />
      <path
         d="m 72.644847,28.526665 h -3.079029 q -1.824611,0 -1.824611,-1.840902 V 14.58143 h -1.906065 v -1.906066 h 1.906065 V 7.739142 h 2.134143 v 4.936222 h 2.769497 V 14.58143 H 69.87535 v 12.039169 h 2.769497 z"
         id="path934" />
      <path
         d="M 77.711398,9.2053466 H 75.512091 V 6.4684314 h 2.199307 z M 77.678815,28.526665 H 75.544673 V 12.675364 h 2.134142 z"
         id="path936" />
      <path
         d="M 83.657671,9.2053466 H 81.458364 V 6.4684314 h 2.199307 z M 83.625089,28.526665 H 81.490947 V 12.675364 h 2.134142 z"
         id="path938" />
      <path
         d="M 96.20187,28.526665 H 93.839651 L 89.47362,20.446248 v 8.080417 H 87.306895 V 3.0309962 H 89.47362 V 19.224411 l 4.07279,-6.549047 h 2.329636 v 0.06517 l -4.610399,7.005199 z"
         id="path940" />
      <path
         d="m 107.37761,28.526665 h -2.36222 l -4.36603,-8.080417 v 8.080417 H 98.482631 V 3.0309962 h 2.166729 V 19.224411 l 4.07279,-6.549047 h 2.32963 v 0.06517 l -4.6104,7.005199 z"
         id="path942" />
      <path
         d="m 111.95542,9.2053466 h -2.19931 V 6.4684314 h 2.19931 z m -0.0326,19.3213184 H 109.7887 V 12.675364 h 2.13414 z"
         id="path944" />
      <path
         d="m 124.7114,25.121812 q 0,1.466204 -0.96118,2.443674 -0.96118,0.961179 -2.41109,0.961179 h -3.56777 v 6.011439 h -2.16672 v -21.86274 h 2.16672 v 0.439861 q 1.28701,-0.162911 2.57401,-0.325823 1.62911,-0.211785 2.55771,-0.211785 1.80832,0 1.80832,1.775737 z m -2.16673,-0.325823 V 14.614012 l -4.77331,0.13033 v 11.876257 h 2.99758 q 1.77573,0 1.77573,-1.82461 z"
         id="path946" />
      <path
         d="m 137.14156,28.526665 h -2.13414 v -0.439862 q -1.287,0.179203 -2.574,0.342115 -1.59654,0.195494 -2.55772,0.195494 -1.77573,0 -1.77573,-1.759446 v -5.783362 q 0,-1.82461 1.8409,-1.82461 H 135.04 v -4.773311 h -4.65927 v 2.704333 h -2.10156 v -2.671751 q 0,-1.840901 1.82461,-1.840901 h 5.21317 q 1.82461,0 1.82461,1.840901 z M 135.04,26.555434 v -5.60416 h -4.83847 v 5.701907 z"
         id="path948" />
      <path
         d="m 142.95751,28.526665 h -2.13415 V 3.0309962 h 2.13415 z"
         id="path950" />
      <path
         d="m 155.56686,12.675364 -3.92617,15.883883 h -1.97123 L 145.727,12.675364 h 2.23189 l 2.70433,12.47903 2.73692,-12.47903 z"
         id="path952" />
      <path
         d="m 167.08472,26.685763 q 0,1.840902 -1.82461,1.840902 h -5.21318 q -1.82461,0 -1.82461,-1.840902 V 14.516265 q 0,-1.840901 1.82461,-1.840901 h 5.21318 q 1.82461,0 1.82461,1.840901 v 5.701907 l -0.73311,0.765685 h -6.02773 v 5.734489 h 4.65928 v -2.899827 h 2.10156 z m -2.10156,-7.428769 v -4.773311 h -4.65928 v 4.773311 z"
         id="path954" />
      <path
         d="m 172.93324,28.526665 h -2.13415 V 3.0309962 h 2.13415 z"
         id="path956" />
      <path
         d="m 185.68922,28.526665 h -2.13415 v -0.439862 q -1.30329,0.179203 -2.59029,0.342115 -1.56395,0.195494 -2.5903,0.195494 -1.75944,0 -1.75944,-1.759446 V 12.675364 h 2.13414 v 13.912652 l 4.80589,-0.130329 V 12.675364 h 2.13415 z"
         id="path958" />
    </g>
  </g>
</svg>
